<svg xmlns="http://www.w3.org/2000/svg" width="900" height="760" viewBox="0 0 900 760">
<defs>
<linearGradient id="bg" x1="0" y1="0" x2="1" y2="1"><stop offset="0" stop-color="#dbeafe"/><stop offset="0.55" stop-color="#ffffff"/><stop offset="1" stop-color="#93c5fd"/></linearGradient>
<linearGradient id="screenSamsung" x1="0" y1="0" x2="1" y2="1"><stop offset="0" stop-color="#0f172a"/><stop offset="0.55" stop-color="#1d4ed8"/><stop offset="1" stop-color="#475569"/></linearGradient>
<linearGradient id="shine" x1="0" y1="0" x2="1" y2="1"><stop offset="0" stop-color="#ffffff"/><stop offset="0.45" stop-color="#ffffff" stop-opacity=".26"/><stop offset="1" stop-color="#000000" stop-opacity=".18"/></linearGradient>
<filter id="shadow" x="-35%" y="-35%" width="180%" height="185%"><feDropShadow dx="0" dy="34" stdDeviation="26" flood-color="#0f172a" flood-opacity="0.28"/></filter>
<filter id="shadowSoft" x="-35%" y="-35%" width="180%" height="185%"><feDropShadow dx="0" dy="28" stdDeviation="22" flood-color="#0f172a" flood-opacity="0.20"/></filter>
</defs>
<rect width="900" height="760" fill="url(#bg)"/>
<circle cx="760" cy="118" r="165" fill="#1d4ed8" opacity="0.13"/>
<circle cx="126" cy="642" r="215" fill="#2563eb" opacity="0.12"/>
<path d="M80 96 C210 16, 318 84, 444 44 S682 48, 826 12" fill="none" stroke="#1d4ed8" stroke-opacity=".14" stroke-width="42" stroke-linecap="round"/>
<rect x="62" y="586" width="220" height="38" rx="19" fill="#ffffff" opacity=".65"/>
<rect x="74" y="638" width="160" height="18" rx="9" fill="#1d4ed8" opacity=".20"/>
<rect x="688" y="594" width="120" height="18" rx="9" fill="#0f172a" opacity=".08"/>
<rect x="260" y="118" width="225" height="455" rx="32" fill="#020617" filter="url(#shadowSoft)" stroke="#cbd5e1" stroke-width="3"/><rect x="274" y="132" width="197" height="427" rx="20" fill="url(#shine)" opacity="0.22" /><circle cx="316.25" cy="190.8" r="12.825000000000001" fill="#020617"/><circle cx="316.25" cy="190.8" r="7.4385" fill="#111827"/><circle cx="313.9415" cy="187.9785" r="2.3085" fill="#ffffff" opacity="0.68"/><circle cx="318.815" cy="193.62150000000003" r="3.5910000000000006" fill="#1d4ed8" opacity="0.55"/><circle cx="316.25" cy="231.3" r="12.825000000000001" fill="#020617"/><circle cx="316.25" cy="231.3" r="7.4385" fill="#111827"/><circle cx="313.9415" cy="228.4785" r="2.3085" fill="#ffffff" opacity="0.68"/><circle cx="318.815" cy="234.12150000000003" r="3.5910000000000006" fill="#1d4ed8" opacity="0.55"/><circle cx="316.25" cy="271.8" r="12.825000000000001" fill="#020617"/><circle cx="316.25" cy="271.8" r="7.4385" fill="#111827"/><circle cx="313.9415" cy="268.9785" r="2.3085" fill="#ffffff" opacity="0.68"/><circle cx="318.815" cy="274.6215" r="3.5910000000000006" fill="#1d4ed8" opacity="0.55"/><line x1="422.0" y1="463.8" x2="422.0" y2="536.6" stroke="#020617" stroke-opacity=".28" stroke-width="4" stroke-linecap="round"/><rect x="300.5" y="518.4" width="144.0" height="4" rx="2" fill="#ffffff" opacity=".22"/><rect x="440" y="150" width="207.0" height="418.6" rx="26" fill="#020617" filter="url(#shadow)" stroke="#e2e8f0" stroke-width="3"/><rect x="448" y="158" width="191.0" height="402.6" rx="18" fill="#f8fafc" /><rect x="458" y="178" width="171.0" height="360.6" rx="12" fill="url(#screenSamsung)" /><circle cx="543.5" cy="177.209" r="5.175000000000001" fill="#020617" opacity="0.88"/><path d="M482 451.392 C497.96000000000004 388.602, 568.34 509.99600000000004, 607.0 417.904" fill="none" stroke="#ffffff" stroke-opacity=".5" stroke-width="6" stroke-linecap="round"/><circle cx="487.61" cy="267.208" r="26.91" fill="#ffffff" opacity=".18"/><circle cx="589.04" cy="325.812" r="37.26" fill="#ffffff" opacity=".12"/>
<g font-family="Inter,Arial,sans-serif" opacity=".90">
<rect x="640" y="80" width="198" height="74" rx="24" fill="#ffffff" opacity=".72"/>
<text x="666" y="112" font-size="14" font-weight="900" fill="#475569">CAMERA</text>
<text x="666" y="137" font-size="17" font-weight="900" fill="#0f172a">200MP + 64MP + 50MP</text>
<rect x="64" y="136" width="198" height="74" rx="24" fill="#ffffff" opacity=".72"/>
<text x="90" y="168" font-size="14" font-weight="900" fill="#475569">DISPLAY</text>
<text x="90" y="193" font-size="17" font-weight="900" fill="#0f172a">6.9 inch Dynamic AMO</text>
</g>

<g font-family="Inter,Arial,sans-serif">
<text x="58" y="70" font-size="20" font-weight="900" fill="#0f172a" opacity=".78">Samsung</text>
<text x="58" y="99" font-size="16" font-weight="800" fill="#64748b">Flagship • 2026</text>
<text x="450" y="660" text-anchor="middle" font-size="28" font-weight="900" fill="#0f172a">Samsung Galaxy S26 Ultra</text>
<text x="450" y="696" text-anchor="middle" font-size="18" font-weight="800" fill="#64748b">Mulai Rp22,0 jt</text>
</g>
</svg>