<svg xmlns="http://www.w3.org/2000/svg" width="900" height="760" viewBox="0 0 900 760">
<defs>
<linearGradient id="bg" x1="0" y1="0" x2="1" y2="1"><stop offset="0" stop-color="#dbeafe"/><stop offset="0.55" stop-color="#ffffff"/><stop offset="1" stop-color="#93c5fd"/></linearGradient>
<linearGradient id="screenSamsung" x1="0" y1="0" x2="1" y2="1"><stop offset="0" stop-color="#0f172a"/><stop offset="0.55" stop-color="#1d4ed8"/><stop offset="1" stop-color="#475569"/></linearGradient>
<linearGradient id="shine" x1="0" y1="0" x2="1" y2="1"><stop offset="0" stop-color="#ffffff"/><stop offset="0.45" stop-color="#ffffff" stop-opacity=".26"/><stop offset="1" stop-color="#000000" stop-opacity=".18"/></linearGradient>
<filter id="shadow" x="-35%" y="-35%" width="180%" height="185%"><feDropShadow dx="0" dy="34" stdDeviation="26" flood-color="#0f172a" flood-opacity="0.28"/></filter>
<filter id="shadowSoft" x="-35%" y="-35%" width="180%" height="185%"><feDropShadow dx="0" dy="28" stdDeviation="22" flood-color="#0f172a" flood-opacity="0.20"/></filter>
</defs>
<rect width="900" height="760" fill="url(#bg)"/>
<circle cx="760" cy="118" r="165" fill="#1d4ed8" opacity="0.13"/>
<circle cx="126" cy="642" r="215" fill="#2563eb" opacity="0.12"/>
<path d="M80 96 C210 16, 318 84, 444 44 S682 48, 826 12" fill="none" stroke="#1d4ed8" stroke-opacity=".14" stroke-width="42" stroke-linecap="round"/>
<rect x="62" y="586" width="220" height="38" rx="19" fill="#ffffff" opacity=".65"/>
<rect x="74" y="638" width="160" height="18" rx="9" fill="#1d4ed8" opacity=".20"/>
<rect x="688" y="594" width="120" height="18" rx="9" fill="#0f172a" opacity=".08"/>
<rect x="260" y="118" width="205" height="420" rx="32" fill="#1d4ed8" filter="url(#shadowSoft)" stroke="#cbd5e1" stroke-width="3"/><rect x="274" y="132" width="177" height="392" rx="20" fill="url(#shine)" opacity="0.22" /><circle cx="311.25" cy="185.2" r="10.25" fill="#020617"/><circle cx="311.25" cy="185.2" r="5.944999999999999" fill="#111827"/><circle cx="309.405" cy="182.945" r="1.845" fill="#ffffff" opacity="0.68"/><circle cx="313.3" cy="187.45499999999998" r="2.87" fill="#1d4ed8" opacity="0.55"/><circle cx="311.25" cy="218.0" r="10.25" fill="#020617"/><circle cx="311.25" cy="218.0" r="5.944999999999999" fill="#111827"/><circle cx="309.405" cy="215.745" r="1.845" fill="#ffffff" opacity="0.68"/><circle cx="313.3" cy="220.255" r="2.87" fill="#1d4ed8" opacity="0.55"/><circle cx="348.15" cy="250.79999999999998" r="3.6899999999999995" fill="#fef3c7" opacity="0.9"/><rect x="296.9" y="487.6" width="131.2" height="4" rx="2" fill="#ffffff" opacity=".22"/><rect x="440" y="150" width="188.6" height="386.40000000000003" rx="26" fill="#020617" filter="url(#shadow)" stroke="#e2e8f0" stroke-width="3"/><rect x="448" y="158" width="172.6" height="370.40000000000003" rx="18" fill="#f8fafc" /><rect x="458" y="178" width="152.6" height="328.40000000000003" rx="12" fill="url(#screenSamsung)" /><circle cx="534.3" cy="175.116" r="4.715" fill="#020617" opacity="0.88"/><path d="M482 428.208 C492.808 370.248, 556.932 482.30400000000003, 588.6 397.29600000000005" fill="none" stroke="#ffffff" stroke-opacity=".5" stroke-width="6" stroke-linecap="round"/><circle cx="483.378" cy="258.192" r="24.518" fill="#ffffff" opacity=".18"/><circle cx="575.792" cy="312.288" r="33.948" fill="#ffffff" opacity=".12"/>
<g font-family="Inter,Arial,sans-serif" opacity=".90">
<rect x="640" y="80" width="198" height="74" rx="24" fill="#ffffff" opacity=".72"/>
<text x="666" y="112" font-size="14" font-weight="900" fill="#475569">CAMERA</text>
<text x="666" y="137" font-size="17" font-weight="900" fill="#0f172a">50MP + 2MP</text>
<rect x="64" y="136" width="198" height="74" rx="24" fill="#ffffff" opacity=".72"/>
<text x="90" y="168" font-size="14" font-weight="900" fill="#475569">DISPLAY</text>
<text x="90" y="193" font-size="17" font-weight="900" fill="#0f172a">6.7 inch PLS LCD</text>
</g>

<g font-family="Inter,Arial,sans-serif">
<text x="58" y="70" font-size="20" font-weight="900" fill="#0f172a" opacity=".78">Samsung</text>
<text x="58" y="99" font-size="16" font-weight="800" fill="#64748b">Entry Level • 2026</text>
<text x="450" y="660" text-anchor="middle" font-size="28" font-weight="900" fill="#0f172a">Samsung Galaxy A06 5G</text>
<text x="450" y="696" text-anchor="middle" font-size="18" font-weight="800" fill="#64748b">Mulai Rp1,8 jt</text>
</g>
</svg>