<svg xmlns="http://www.w3.org/2000/svg" width="900" height="760" viewBox="0 0 900 760">
<defs>
<linearGradient id="bg" x1="0" y1="0" x2="1" y2="1"><stop offset="0" stop-color="#eef2ff"/><stop offset="0.55" stop-color="#ffffff"/><stop offset="1" stop-color="#ddd6fe"/></linearGradient>
<linearGradient id="screenVivo" x1="0" y1="0" x2="1" y2="1"><stop offset="0" stop-color="#111827"/><stop offset="0.55" stop-color="#6366f1"/><stop offset="1" stop-color="#22d3ee"/></linearGradient>
<linearGradient id="shine" x1="0" y1="0" x2="1" y2="1"><stop offset="0" stop-color="#ffffff"/><stop offset="0.45" stop-color="#ffffff" stop-opacity=".26"/><stop offset="1" stop-color="#000000" stop-opacity=".18"/></linearGradient>
<filter id="shadow" x="-35%" y="-35%" width="180%" height="185%"><feDropShadow dx="0" dy="34" stdDeviation="26" flood-color="#0f172a" flood-opacity="0.28"/></filter>
<filter id="shadowSoft" x="-35%" y="-35%" width="180%" height="185%"><feDropShadow dx="0" dy="28" stdDeviation="22" flood-color="#0f172a" flood-opacity="0.20"/></filter>
</defs>
<rect width="900" height="760" fill="url(#bg)"/>
<circle cx="760" cy="118" r="165" fill="#6366f1" opacity="0.13"/>
<circle cx="126" cy="642" r="215" fill="#8b5cf6" opacity="0.12"/>
<path d="M80 96 C210 16, 318 84, 444 44 S682 48, 826 12" fill="none" stroke="#6366f1" stroke-opacity=".14" stroke-width="42" stroke-linecap="round"/>
<rect x="62" y="586" width="220" height="38" rx="19" fill="#ffffff" opacity=".65"/>
<rect x="74" y="638" width="160" height="18" rx="9" fill="#6366f1" opacity=".20"/>
<rect x="688" y="594" width="120" height="18" rx="9" fill="#111827" opacity=".08"/>
<rect x="220" y="118" width="370" height="420" rx="30" fill="#f5f3ff" filter="url(#shadowSoft)" stroke="#cbd5e1" stroke-width="3"/><line x1="405.0" y1="138" x2="405.0" y2="518" stroke="#020617" stroke-opacity=".3" stroke-width="6"/><circle cx="336.0" cy="193.6" r="25.3" fill="#020617" opacity="0.85"/><circle cx="324.5" cy="185.2" r="8.74" fill="#020617"/><circle cx="324.5" cy="185.2" r="5.0691999999999995" fill="#111827"/><circle cx="322.9268" cy="183.2772" r="1.5732" fill="#ffffff" opacity="0.68"/><circle cx="326.248" cy="187.12279999999998" r="2.4472000000000005" fill="#6366f1" opacity="0.55"/><circle cx="336.0" cy="210.4" r="8.74" fill="#020617"/><circle cx="336.0" cy="210.4" r="5.0691999999999995" fill="#111827"/><circle cx="334.4268" cy="208.4772" r="1.5732" fill="#ffffff" opacity="0.68"/><circle cx="337.748" cy="212.3228" r="2.4472000000000005" fill="#6366f1" opacity="0.55"/><circle cx="347.5" cy="235.60000000000002" r="8.74" fill="#020617"/><circle cx="347.5" cy="235.60000000000002" r="5.0691999999999995" fill="#111827"/><circle cx="345.9268" cy="233.67720000000003" r="1.5732" fill="#ffffff" opacity="0.68"/><circle cx="349.248" cy="237.52280000000002" r="2.4472000000000005" fill="#6366f1" opacity="0.55"/><rect x="372" y="136" width="270" height="420" rx="32" fill="#020617" filter="url(#shadow)" stroke="#e2e8f0" stroke-width="3"/><rect x="384" y="148" width="246" height="396" rx="24" fill="url(#screenVivo)" /><line x1="507" y1="154" x2="507" y2="538" stroke="#ffffff" stroke-opacity=".16" stroke-width="5"/><rect x="610" y="176" width="118" height="340" rx="28" fill="#020617" filter="url(#shadowSoft)" stroke="#cbd5e1" stroke-width="3"/><rect x="619" y="186" width="100" height="320" rx="22" fill="url(#screenVivo)" />
<g font-family="Inter,Arial,sans-serif" opacity=".90">
<rect x="640" y="80" width="198" height="74" rx="24" fill="#ffffff" opacity=".72"/>
<text x="666" y="112" font-size="14" font-weight="900" fill="#475569">CAMERA</text>
<text x="666" y="137" font-size="17" font-weight="900" fill="#0f172a">50MP + 50MP + 50MP</text>
<rect x="64" y="136" width="198" height="74" rx="24" fill="#ffffff" opacity=".72"/>
<text x="90" y="168" font-size="14" font-weight="900" fill="#475569">DISPLAY</text>
<text x="90" y="193" font-size="17" font-weight="900" fill="#0f172a">8.03 inch Foldable L</text>
</g>

<g font-family="Inter,Arial,sans-serif">
<text x="58" y="70" font-size="20" font-weight="900" fill="#0f172a" opacity=".78">Vivo</text>
<text x="58" y="99" font-size="16" font-weight="800" fill="#64748b">Flagship • 2026</text>
<text x="450" y="660" text-anchor="middle" font-size="28" font-weight="900" fill="#0f172a">Vivo X Fold 4</text>
<text x="450" y="696" text-anchor="middle" font-size="18" font-weight="800" fill="#64748b">Mulai Rp23,0 jt</text>
</g>
</svg>