<svg xmlns="http://www.w3.org/2000/svg" width="900" height="760" viewBox="0 0 900 760">
<defs>
<linearGradient id="bg" x1="0" y1="0" x2="1" y2="1"><stop offset="0" stop-color="#eef2ff"/><stop offset="0.55" stop-color="#ffffff"/><stop offset="1" stop-color="#ddd6fe"/></linearGradient>
<linearGradient id="screenVivo" x1="0" y1="0" x2="1" y2="1"><stop offset="0" stop-color="#111827"/><stop offset="0.55" stop-color="#6366f1"/><stop offset="1" stop-color="#22d3ee"/></linearGradient>
<linearGradient id="shine" x1="0" y1="0" x2="1" y2="1"><stop offset="0" stop-color="#ffffff"/><stop offset="0.45" stop-color="#ffffff" stop-opacity=".26"/><stop offset="1" stop-color="#000000" stop-opacity=".18"/></linearGradient>
<filter id="shadow" x="-35%" y="-35%" width="180%" height="185%"><feDropShadow dx="0" dy="34" stdDeviation="26" flood-color="#0f172a" flood-opacity="0.28"/></filter>
<filter id="shadowSoft" x="-35%" y="-35%" width="180%" height="185%"><feDropShadow dx="0" dy="28" stdDeviation="22" flood-color="#0f172a" flood-opacity="0.20"/></filter>
</defs>
<rect width="900" height="760" fill="url(#bg)"/>
<circle cx="760" cy="118" r="165" fill="#6366f1" opacity="0.13"/>
<circle cx="126" cy="642" r="215" fill="#8b5cf6" opacity="0.12"/>
<path d="M80 96 C210 16, 318 84, 444 44 S682 48, 826 12" fill="none" stroke="#6366f1" stroke-opacity=".14" stroke-width="42" stroke-linecap="round"/>
<rect x="62" y="586" width="220" height="38" rx="19" fill="#ffffff" opacity=".65"/>
<rect x="74" y="638" width="160" height="18" rx="9" fill="#6366f1" opacity=".20"/>
<rect x="688" y="594" width="120" height="18" rx="9" fill="#111827" opacity=".08"/>
<rect x="260" y="118" width="215" height="440" rx="40" fill="#0891b2" filter="url(#shadowSoft)" stroke="#cbd5e1" stroke-width="3"/><rect x="272" y="130" width="191" height="416" rx="30" fill="url(#shine)" opacity="0.24" /><circle cx="367.5" cy="206.0" r="34.4" fill="#020617" opacity="0.84"/><circle cx="367.5" cy="194.175" r="9.245" fill="#020617"/><circle cx="367.5" cy="194.175" r="5.362099999999999" fill="#111827"/><circle cx="365.8359" cy="192.14110000000002" r="1.6640999999999997" fill="#ffffff" opacity="0.68"/><circle cx="369.349" cy="196.2089" r="2.5886" fill="#6366f1" opacity="0.55"/><circle cx="377.740750399751" cy="211.9125" r="9.245" fill="#020617"/><circle cx="377.740750399751" cy="211.9125" r="5.362099999999999" fill="#111827"/><circle cx="376.076650399751" cy="209.8786" r="1.6640999999999997" fill="#ffffff" opacity="0.68"/><circle cx="379.589750399751" cy="213.94639999999998" r="2.5886" fill="#6366f1" opacity="0.55"/><circle cx="357.259249600249" cy="211.9125" r="9.245" fill="#020617"/><circle cx="357.259249600249" cy="211.9125" r="5.362099999999999" fill="#111827"/><circle cx="355.595149600249" cy="209.8786" r="1.6640999999999997" fill="#ffffff" opacity="0.68"/><circle cx="359.108249600249" cy="213.94639999999998" r="2.5886" fill="#6366f1" opacity="0.55"/><rect x="307.3" y="272.0" width="120.4" height="35.2" rx="18" fill="#ffffff" opacity="0.15" /><circle cx="320.2" cy="289.6" r="3.6550000000000002" fill="#60a5fa" opacity="0.9"/><rect x="440" y="150" width="197.8" height="404.8" rx="34" fill="#020617" filter="url(#shadow)" stroke="#e2e8f0" stroke-width="3"/><rect x="448" y="158" width="181.8" height="388.8" rx="26" fill="#f8fafc" /><rect x="458" y="178" width="161.8" height="346.8" rx="20" fill="url(#screenVivo)" /><circle cx="538.9" cy="175.0976" r="4.3516" fill="#020617" opacity="0.85"/><path d="M482 441.456 C495.384 380.736, 562.636 498.128, 597.8 409.072" fill="none" stroke="#ffffff" stroke-opacity=".5" stroke-width="6" stroke-linecap="round"/><circle cx="485.494" cy="263.344" r="25.714000000000002" fill="#ffffff" opacity=".18"/><circle cx="582.4159999999999" cy="320.01599999999996" r="35.604" fill="#ffffff" opacity=".12"/>
<g font-family="Inter,Arial,sans-serif" opacity=".90">
<rect x="640" y="80" width="198" height="74" rx="24" fill="#ffffff" opacity=".72"/>
<text x="666" y="112" font-size="14" font-weight="900" fill="#475569">CAMERA</text>
<text x="666" y="137" font-size="17" font-weight="900" fill="#0f172a">50MP Triple OIS</text>
<rect x="64" y="136" width="198" height="74" rx="24" fill="#ffffff" opacity=".72"/>
<text x="90" y="168" font-size="14" font-weight="900" fill="#475569">DISPLAY</text>
<text x="90" y="193" font-size="17" font-weight="900" fill="#0f172a">6.78 inch AMOLED 3D </text>
</g>

<g font-family="Inter,Arial,sans-serif">
<text x="58" y="70" font-size="20" font-weight="900" fill="#0f172a" opacity=".78">Vivo</text>
<text x="58" y="99" font-size="16" font-weight="800" fill="#64748b">Mid-range • 2026</text>
<text x="450" y="660" text-anchor="middle" font-size="28" font-weight="900" fill="#0f172a">Vivo V50 Pro</text>
<text x="450" y="696" text-anchor="middle" font-size="18" font-weight="800" fill="#64748b">Mulai Rp7,5 jt</text>
</g>
</svg>