<svg xmlns="http://www.w3.org/2000/svg" width="900" height="760" viewBox="0 0 900 760">
<defs>
<linearGradient id="bg" x1="0" y1="0" x2="1" y2="1"><stop offset="0" stop-color="#eef2ff"/><stop offset="0.55" stop-color="#ffffff"/><stop offset="1" stop-color="#ddd6fe"/></linearGradient>
<linearGradient id="screenVivo" x1="0" y1="0" x2="1" y2="1"><stop offset="0" stop-color="#111827"/><stop offset="0.55" stop-color="#6366f1"/><stop offset="1" stop-color="#22d3ee"/></linearGradient>
<linearGradient id="shine" x1="0" y1="0" x2="1" y2="1"><stop offset="0" stop-color="#ffffff"/><stop offset="0.45" stop-color="#ffffff" stop-opacity=".26"/><stop offset="1" stop-color="#000000" stop-opacity=".18"/></linearGradient>
<filter id="shadow" x="-35%" y="-35%" width="180%" height="185%"><feDropShadow dx="0" dy="34" stdDeviation="26" flood-color="#0f172a" flood-opacity="0.28"/></filter>
<filter id="shadowSoft" x="-35%" y="-35%" width="180%" height="185%"><feDropShadow dx="0" dy="28" stdDeviation="22" flood-color="#0f172a" flood-opacity="0.20"/></filter>
</defs>
<rect width="900" height="760" fill="url(#bg)"/>
<circle cx="760" cy="118" r="165" fill="#6366f1" opacity="0.13"/>
<circle cx="126" cy="642" r="215" fill="#8b5cf6" opacity="0.12"/>
<path d="M80 96 C210 16, 318 84, 444 44 S682 48, 826 12" fill="none" stroke="#6366f1" stroke-opacity=".14" stroke-width="42" stroke-linecap="round"/>
<rect x="62" y="586" width="220" height="38" rx="19" fill="#ffffff" opacity=".65"/>
<rect x="74" y="638" width="160" height="18" rx="9" fill="#6366f1" opacity=".20"/>
<rect x="688" y="594" width="120" height="18" rx="9" fill="#111827" opacity=".08"/>
<rect x="260" y="118" width="210" height="430" rx="38" fill="#312e81" filter="url(#shadowSoft)" stroke="#cbd5e1" stroke-width="3"/><rect x="272" y="130" width="186" height="406" rx="28" fill="url(#shine)" opacity="0.24" /><circle cx="365.0" cy="204.0" r="33.6" fill="#020617" opacity="0.84"/><circle cx="365.0" cy="192.45" r="9.03" fill="#020617"/><circle cx="365.0" cy="192.45" r="5.237399999999999" fill="#111827"/><circle cx="363.3746" cy="190.46339999999998" r="1.6253999999999997" fill="#ffffff" opacity="0.68"/><circle cx="366.806" cy="194.4366" r="2.5284" fill="#6366f1" opacity="0.55"/><circle cx="375.00259341371026" cy="209.775" r="9.03" fill="#020617"/><circle cx="375.00259341371026" cy="209.775" r="5.237399999999999" fill="#111827"/><circle cx="373.37719341371024" cy="207.7884" r="1.6253999999999997" fill="#ffffff" opacity="0.68"/><circle cx="376.80859341371024" cy="211.76160000000002" r="2.5284" fill="#6366f1" opacity="0.55"/><rect x="306.2" y="268.5" width="117.60000000000001" height="34.4" rx="18" fill="#ffffff" opacity="0.15" /><circle cx="318.8" cy="285.70000000000005" r="3.5700000000000003" fill="#60a5fa" opacity="0.9"/><rect x="440" y="150" width="193.20000000000002" height="395.6" rx="32" fill="#020617" filter="url(#shadow)" stroke="#e2e8f0" stroke-width="3"/><rect x="448" y="158" width="177.20000000000002" height="379.6" rx="24" fill="#f8fafc" /><rect x="458" y="178" width="157.20000000000002" height="337.6" rx="18" fill="url(#screenVivo)" /><circle cx="536.6" cy="174.5272" r="4.2504" fill="#020617" opacity="0.85"/><path d="M482 434.832 C494.096 375.49199999999996, 559.784 490.216, 593.2 403.184" fill="none" stroke="#ffffff" stroke-opacity=".5" stroke-width="6" stroke-linecap="round"/><circle cx="484.43600000000004" cy="260.76800000000003" r="25.116000000000003" fill="#ffffff" opacity=".18"/><circle cx="579.104" cy="316.15200000000004" r="34.776" fill="#ffffff" opacity=".12"/>
<g font-family="Inter,Arial,sans-serif" opacity=".90">
<rect x="640" y="80" width="198" height="74" rx="24" fill="#ffffff" opacity=".72"/>
<text x="666" y="112" font-size="14" font-weight="900" fill="#475569">CAMERA</text>
<text x="666" y="137" font-size="17" font-weight="900" fill="#0f172a">50MP Dual Aura Light</text>
<rect x="64" y="136" width="198" height="74" rx="24" fill="#ffffff" opacity=".72"/>
<text x="90" y="168" font-size="14" font-weight="900" fill="#475569">DISPLAY</text>
<text x="90" y="193" font-size="17" font-weight="900" fill="#0f172a">6.78 inch AMOLED Cur</text>
</g>

<g font-family="Inter,Arial,sans-serif">
<text x="58" y="70" font-size="20" font-weight="900" fill="#0f172a" opacity=".78">Vivo</text>
<text x="58" y="99" font-size="16" font-weight="800" fill="#64748b">Mid-range • 2026</text>
<text x="450" y="660" text-anchor="middle" font-size="28" font-weight="900" fill="#0f172a">Vivo V50</text>
<text x="450" y="696" text-anchor="middle" font-size="18" font-weight="800" fill="#64748b">Mulai Rp6,0 jt</text>
</g>
</svg>