<svg xmlns="http://www.w3.org/2000/svg" width="900" height="760" viewBox="0 0 900 760">
<defs>
<linearGradient id="bg" x1="0" y1="0" x2="1" y2="1"><stop offset="0" stop-color="#eef2ff"/><stop offset="0.55" stop-color="#ffffff"/><stop offset="1" stop-color="#ddd6fe"/></linearGradient>
<linearGradient id="screenVivo" x1="0" y1="0" x2="1" y2="1"><stop offset="0" stop-color="#111827"/><stop offset="0.55" stop-color="#6366f1"/><stop offset="1" stop-color="#22d3ee"/></linearGradient>
<linearGradient id="shine" x1="0" y1="0" x2="1" y2="1"><stop offset="0" stop-color="#ffffff"/><stop offset="0.45" stop-color="#ffffff" stop-opacity=".26"/><stop offset="1" stop-color="#000000" stop-opacity=".18"/></linearGradient>
<filter id="shadow" x="-35%" y="-35%" width="180%" height="185%"><feDropShadow dx="0" dy="34" stdDeviation="26" flood-color="#0f172a" flood-opacity="0.28"/></filter>
<filter id="shadowSoft" x="-35%" y="-35%" width="180%" height="185%"><feDropShadow dx="0" dy="28" stdDeviation="22" flood-color="#0f172a" flood-opacity="0.20"/></filter>
</defs>
<rect width="900" height="760" fill="url(#bg)"/>
<circle cx="760" cy="118" r="165" fill="#6366f1" opacity="0.13"/>
<circle cx="126" cy="642" r="215" fill="#8b5cf6" opacity="0.12"/>
<path d="M80 96 C210 16, 318 84, 444 44 S682 48, 826 12" fill="none" stroke="#6366f1" stroke-opacity=".14" stroke-width="42" stroke-linecap="round"/>
<rect x="62" y="586" width="220" height="38" rx="19" fill="#ffffff" opacity=".65"/>
<rect x="74" y="638" width="160" height="18" rx="9" fill="#6366f1" opacity=".20"/>
<rect x="688" y="594" width="120" height="18" rx="9" fill="#111827" opacity=".08"/>
<rect x="260" y="118" width="205" height="420" rx="32" fill="#c4b5fd" filter="url(#shadowSoft)" stroke="#cbd5e1" stroke-width="3"/><rect x="272" y="130" width="181" height="396" rx="22" fill="url(#shine)" opacity="0.24" /><circle cx="362.5" cy="202.0" r="32.8" fill="#020617" opacity="0.84"/><circle cx="362.5" cy="190.725" r="8.815" fill="#020617"/><circle cx="362.5" cy="190.725" r="5.112699999999999" fill="#111827"/><circle cx="360.9133" cy="188.7857" r="1.5866999999999998" fill="#ffffff" opacity="0.68"/><circle cx="364.263" cy="192.6643" r="2.4682" fill="#6366f1" opacity="0.55"/><circle cx="372.2644364276695" cy="207.6375" r="8.815" fill="#020617"/><circle cx="372.2644364276695" cy="207.6375" r="5.112699999999999" fill="#111827"/><circle cx="370.6777364276695" cy="205.69819999999999" r="1.5866999999999998" fill="#ffffff" opacity="0.68"/><circle cx="374.0274364276695" cy="209.5768" r="2.4682" fill="#6366f1" opacity="0.55"/><rect x="305.1" y="265.0" width="114.80000000000001" height="33.6" rx="18" fill="#ffffff" opacity="0.15" /><circle cx="317.4" cy="281.8" r="3.4850000000000003" fill="#60a5fa" opacity="0.9"/><rect x="440" y="150" width="188.6" height="386.40000000000003" rx="26" fill="#020617" filter="url(#shadow)" stroke="#e2e8f0" stroke-width="3"/><rect x="448" y="158" width="172.6" height="370.40000000000003" rx="18" fill="#f8fafc" /><rect x="458" y="178" width="152.6" height="328.40000000000003" rx="12" fill="url(#screenVivo)" /><circle cx="534.3" cy="173.9568" r="4.1491999999999996" fill="#020617" opacity="0.85"/><path d="M482 428.208 C492.808 370.248, 556.932 482.30400000000003, 588.6 397.29600000000005" fill="none" stroke="#ffffff" stroke-opacity=".5" stroke-width="6" stroke-linecap="round"/><circle cx="483.378" cy="258.192" r="24.518" fill="#ffffff" opacity=".18"/><circle cx="575.792" cy="312.288" r="33.948" fill="#ffffff" opacity=".12"/>
<g font-family="Inter,Arial,sans-serif" opacity=".90">
<rect x="640" y="80" width="198" height="74" rx="24" fill="#ffffff" opacity=".72"/>
<text x="666" y="112" font-size="14" font-weight="900" fill="#475569">CAMERA</text>
<text x="666" y="137" font-size="17" font-weight="900" fill="#0f172a">50MP + 2MP</text>
<rect x="64" y="136" width="198" height="74" rx="24" fill="#ffffff" opacity=".72"/>
<text x="90" y="168" font-size="14" font-weight="900" fill="#475569">DISPLAY</text>
<text x="90" y="193" font-size="17" font-weight="900" fill="#0f172a">6.56 inch IPS LCD 90</text>
</g>

<g font-family="Inter,Arial,sans-serif">
<text x="58" y="70" font-size="20" font-weight="900" fill="#0f172a" opacity=".78">Vivo</text>
<text x="58" y="99" font-size="16" font-weight="800" fill="#64748b">Entry Level • 2026</text>
<text x="450" y="660" text-anchor="middle" font-size="28" font-weight="900" fill="#0f172a">Vivo Y29 5G</text>
<text x="450" y="696" text-anchor="middle" font-size="18" font-weight="800" fill="#64748b">Mulai Rp2,7 jt</text>
</g>
</svg>