<svg xmlns="http://www.w3.org/2000/svg" width="900" height="760" viewBox="0 0 900 760">
<defs>
<linearGradient id="bg" x1="0" y1="0" x2="1" y2="1"><stop offset="0" stop-color="#ecfdf5"/><stop offset="0.55" stop-color="#ffffff"/><stop offset="1" stop-color="#d1fae5"/></linearGradient>
<linearGradient id="screenOPPO" x1="0" y1="0" x2="1" y2="1"><stop offset="0" stop-color="#111827"/><stop offset="0.55" stop-color="#10b981"/><stop offset="1" stop-color="#14b8a6"/></linearGradient>
<linearGradient id="shine" x1="0" y1="0" x2="1" y2="1"><stop offset="0" stop-color="#ffffff"/><stop offset="0.45" stop-color="#ffffff" stop-opacity=".26"/><stop offset="1" stop-color="#000000" stop-opacity=".18"/></linearGradient>
<filter id="shadow" x="-35%" y="-35%" width="180%" height="185%"><feDropShadow dx="0" dy="34" stdDeviation="26" flood-color="#0f172a" flood-opacity="0.28"/></filter>
<filter id="shadowSoft" x="-35%" y="-35%" width="180%" height="185%"><feDropShadow dx="0" dy="28" stdDeviation="22" flood-color="#0f172a" flood-opacity="0.20"/></filter>
</defs>
<rect width="900" height="760" fill="url(#bg)"/>
<circle cx="760" cy="118" r="165" fill="#10b981" opacity="0.13"/>
<circle cx="126" cy="642" r="215" fill="#34d399" opacity="0.12"/>
<path d="M80 96 C210 16, 318 84, 444 44 S682 48, 826 12" fill="none" stroke="#10b981" stroke-opacity=".14" stroke-width="42" stroke-linecap="round"/>
<rect x="62" y="586" width="220" height="38" rx="19" fill="#ffffff" opacity=".65"/>
<rect x="74" y="638" width="160" height="18" rx="9" fill="#10b981" opacity=".20"/>
<rect x="688" y="594" width="120" height="18" rx="9" fill="#111827" opacity=".08"/>
<rect x="260" y="118" width="210" height="430" rx="38" fill="#d1fae5" filter="url(#shadowSoft)" stroke="#cbd5e1" stroke-width="3"/><rect x="272" y="130" width="186" height="406" rx="28" fill="url(#shine)" opacity="0.23" /><rect x="285.2" y="152.4" width="79.8" height="98.9" rx="22" fill="#020617" opacity="0.82" /><circle cx="308.3" cy="195.39999999999998" r="9.45" fill="#020617"/><circle cx="308.3" cy="195.39999999999998" r="5.480999999999999" fill="#111827"/><circle cx="306.599" cy="193.32099999999997" r="1.7009999999999998" fill="#ffffff" opacity="0.68"/><circle cx="310.19" cy="197.47899999999998" r="2.646" fill="#10b981" opacity="0.55"/><circle cx="339.8" cy="195.39999999999998" r="9.45" fill="#020617"/><circle cx="339.8" cy="195.39999999999998" r="5.480999999999999" fill="#111827"/><circle cx="338.099" cy="193.32099999999997" r="1.7009999999999998" fill="#ffffff" opacity="0.68"/><circle cx="341.69" cy="197.47899999999998" r="2.646" fill="#10b981" opacity="0.55"/><rect x="440" y="150" width="193.20000000000002" height="395.6" rx="32" fill="#020617" filter="url(#shadow)" stroke="#e2e8f0" stroke-width="3"/><rect x="448" y="158" width="177.20000000000002" height="379.6" rx="24" fill="#f8fafc" /><rect x="458" y="178" width="157.20000000000002" height="337.6" rx="18" fill="url(#screenOPPO)" /><circle cx="536.6" cy="174.5272" r="4.2504" fill="#020617" opacity="0.85"/><path d="M482 434.832 C494.096 375.49199999999996, 559.784 490.216, 593.2 403.184" fill="none" stroke="#ffffff" stroke-opacity=".5" stroke-width="6" stroke-linecap="round"/><circle cx="484.43600000000004" cy="260.76800000000003" r="25.116000000000003" fill="#ffffff" opacity=".18"/><circle cx="579.104" cy="316.15200000000004" r="34.776" fill="#ffffff" opacity=".12"/>
<g font-family="Inter,Arial,sans-serif" opacity=".90">
<rect x="640" y="80" width="198" height="74" rx="24" fill="#ffffff" opacity=".72"/>
<text x="666" y="112" font-size="14" font-weight="900" fill="#475569">CAMERA</text>
<text x="666" y="137" font-size="17" font-weight="900" fill="#0f172a">48MP + 64MP + 48MP</text>
<rect x="64" y="136" width="198" height="74" rx="24" fill="#ffffff" opacity=".72"/>
<text x="90" y="168" font-size="14" font-weight="900" fill="#475569">DISPLAY</text>
<text x="90" y="193" font-size="17" font-weight="900" fill="#0f172a">7.82 inch Foldable O</text>
</g>

<g font-family="Inter,Arial,sans-serif">
<text x="58" y="70" font-size="20" font-weight="900" fill="#0f172a" opacity=".78">OPPO</text>
<text x="58" y="99" font-size="16" font-weight="800" fill="#64748b">Flagship • 2026</text>
<text x="450" y="660" text-anchor="middle" font-size="28" font-weight="900" fill="#0f172a">OPPO Find N5</text>
<text x="450" y="696" text-anchor="middle" font-size="18" font-weight="800" fill="#64748b">Mulai Rp22,5 jt</text>
</g>
</svg>